<?xml version="1.0" encoding="UTF-8"?>
<svg id="_Слой_1" data-name="Слой 1" xmlns="http://www.w3.org/2000/svg" xmlns:xlink="http://www.w3.org/1999/xlink" viewBox="0 0 460.8 345.6">
  <defs>
    <style>
      .cls-1, .cls-2, .cls-3 {
        stroke: #000;
      }

      .cls-1, .cls-2, .cls-3, .cls-4, .cls-5 {
        fill: none;
      }

      .cls-1, .cls-2, .cls-5 {
        stroke-linejoin: round;
      }

      .cls-1, .cls-3 {
        stroke-width: .8px;
      }

      .cls-6 {
        clip-path: url(#clippath-11);
      }

      .cls-7 {
        clip-path: url(#clippath-16);
      }

      .cls-8 {
        fill: #fff;
      }

      .cls-9, .cls-10, .cls-11 {
        font-family: TimesNewRomanPSMT, 'Times New Roman';
      }

      .cls-9, .cls-12 {
        font-size: 11.9px;
      }

      .cls-13 {
        letter-spacing: 0em;
      }

      .cls-2 {
        stroke-width: 1.5px;
      }

      .cls-2, .cls-3, .cls-5 {
        stroke-linecap: square;
      }

      .cls-10, .cls-14 {
        font-size: 11.87px;
      }

      .cls-15 {
        clip-path: url(#clippath-2);
      }

      .cls-16 {
        clip-path: url(#clippath-13);
      }

      .cls-17 {
        clip-path: url(#clippath-15);
      }

      .cls-18 {
        clip-path: url(#clippath-6);
      }

      .cls-19 {
        letter-spacing: 0em;
      }

      .cls-20 {
        letter-spacing: -.01em;
      }

      .cls-21 {
        clip-path: url(#clippath-7);
      }

      .cls-22 {
        clip-path: url(#clippath-1);
      }

      .cls-23 {
        clip-path: url(#clippath-4);
      }

      .cls-24 {
        letter-spacing: 0em;
      }

      .cls-12, .cls-25, .cls-14 {
        font-family: TimesNewRomanPS-ItalicMT, 'Times New Roman';
        font-style: italic;
      }

      .cls-26 {
        letter-spacing: -.01em;
      }

      .cls-27 {
        clip-path: url(#clippath-12);
      }

      .cls-28 {
        clip-path: url(#clippath-9);
      }

      .cls-29 {
        clip-path: url(#clippath);
      }

      .cls-25, .cls-11 {
        font-size: 11.96px;
      }

      .cls-3 {
        stroke-miterlimit: 10;
      }

      .cls-30 {
        clip-path: url(#clippath-3);
      }

      .cls-31 {
        clip-path: url(#clippath-8);
      }

      .cls-32 {
        clip-path: url(#clippath-14);
      }

      .cls-33 {
        clip-path: url(#clippath-17);
      }

      .cls-34 {
        clip-path: url(#clippath-5);
      }

      .cls-35 {
        clip-path: url(#clippath-10);
      }

      .cls-5 {
        stroke: #b0b0b0;
        stroke-width: .3px;
      }
    </style>
    <clipPath id="clippath">
      <rect class="cls-4" x="57.6" y="41.47" width="357.12" height="266.11"/>
    </clipPath>
    <clipPath id="clippath-1">
      <rect class="cls-4" x="98.59" y="310.43" width="31.38" height="16.16"/>
    </clipPath>
    <clipPath id="clippath-2">
      <rect class="cls-4" x="57.6" y="41.47" width="357.12" height="266.11"/>
    </clipPath>
    <clipPath id="clippath-3">
      <rect class="cls-4" x="168.94" y="310.43" width="31.38" height="16.16"/>
    </clipPath>
    <clipPath id="clippath-4">
      <rect class="cls-4" x="57.6" y="41.47" width="357.12" height="266.11"/>
    </clipPath>
    <clipPath id="clippath-5">
      <rect class="cls-4" x="239.28" y="310.43" width="31.38" height="16.16"/>
    </clipPath>
    <clipPath id="clippath-6">
      <rect class="cls-4" x="57.6" y="41.47" width="357.12" height="266.11"/>
    </clipPath>
    <clipPath id="clippath-7">
      <rect class="cls-4" x="309.63" y="310.43" width="31.38" height="16.16"/>
    </clipPath>
    <clipPath id="clippath-8">
      <rect class="cls-4" x="57.6" y="41.47" width="357.12" height="266.11"/>
    </clipPath>
    <clipPath id="clippath-9">
      <rect class="cls-4" x="57.6" y="41.47" width="357.12" height="266.11"/>
    </clipPath>
    <clipPath id="clippath-10">
      <rect class="cls-4" x="57.6" y="41.47" width="357.12" height="266.11"/>
    </clipPath>
    <clipPath id="clippath-11">
      <rect class="cls-4" x="57.6" y="41.47" width="357.12" height="266.11"/>
    </clipPath>
    <clipPath id="clippath-12">
      <rect class="cls-4" x="57.6" y="41.47" width="357.12" height="266.11"/>
    </clipPath>
    <clipPath id="clippath-13">
      <rect class="cls-4" x="57.6" y="41.47" width="357.12" height="266.11"/>
    </clipPath>
    <clipPath id="clippath-14">
      <rect class="cls-4" x="57.6" y="41.47" width="357.12" height="266.11"/>
    </clipPath>
    <clipPath id="clippath-15">
      <rect class="cls-4" x="57.6" y="41.47" width="357.12" height="266.11"/>
    </clipPath>
    <clipPath id="clippath-16">
      <rect class="cls-4" x="57.6" y="41.47" width="357.12" height="266.11"/>
    </clipPath>
    <clipPath id="clippath-17">
      <rect class="cls-4" x="57.6" y="41.47" width="357.12" height="266.11"/>
    </clipPath>
  </defs>
  <rect class="cls-8" width="460.8" height="345.6"/>
  <rect class="cls-8" x="57.6" y="41.47" width="357.12" height="266.11"/>
  <g class="cls-29">
    <line class="cls-5" x1="117.8" y1="307.58" x2="117.8" y2="41.47"/>
  </g>
  <line class="cls-1" x1="117.8" y1="307.58" x2="117.8" y2="311.08"/>
  <path d="m114.76,319.13c-.34.28-.58.58-.73.9-.16.32-.23.67-.23,1.04,0,.5.13.91.41,1.21.28.3.62.44,1.06.44s.76-.11,1.02-.35c.25-.24.38-.53.38-.88,0-.28-.08-.53-.23-.76-.29-.41-.84-.95-1.68-1.62Zm.65-.85c.46-.41.76-.74.88-1,.12-.24.19-.52.19-.83,0-.41-.12-.72-.35-.96-.23-.23-.54-.35-.94-.35s-.73.12-.97.35c-.25.23-.37.49-.37.8,0,.2.05.41.16.61.1.2.24.4.43.58l.97.79Zm-.92.64c-.64-.52-1.04-.94-1.22-1.25-.18-.31-.26-.64-.26-.97,0-.52.19-.96.59-1.33.4-.37.92-.56,1.6-.56.64,0,1.15.18,1.55.53.38.35.59.74.59,1.19,0,.3-.11.6-.32.91-.22.31-.65.67-1.31,1.08.67.54,1.13.96,1.36,1.26.29.41.44.83.44,1.26,0,.56-.22,1.04-.64,1.43-.43.4-.98.59-1.67.59-.77,0-1.36-.23-1.76-.7-.34-.38-.5-.79-.5-1.25,0-.35.11-.7.35-1.04.24-.34.65-.72,1.22-1.14Z"/>
  <path d="m119.77,319.13c0,1.1.13,1.99.41,2.68.22.59.54.88,1,.88.2,0,.42-.08.65-.28.23-.19.4-.5.52-.96.18-.67.28-1.62.28-2.84,0-.9-.1-1.66-.29-2.27-.14-.44-.32-.76-.54-.95-.17-.13-.36-.2-.59-.2-.26,0-.5.12-.71.36-.29.34-.48.84-.58,1.54-.1.7-.14,1.38-.14,2.05Zm-1.15-.14c0-.9.13-1.68.41-2.34.26-.65.64-1.14,1.09-1.46.35-.25.71-.38,1.09-.38.6,0,1.15.31,1.64.94.6.77.9,1.81.9,3.13,0,.92-.13,1.7-.4,2.35-.26.65-.61,1.1-1.02,1.39s-.8.43-1.19.43c-.77,0-1.39-.44-1.9-1.33-.43-.74-.64-1.66-.64-2.72Z"/>
  <path d="m125.77,319.13c0,1.1.13,1.99.41,2.68.22.59.54.88,1,.88.2,0,.42-.08.65-.28s.4-.5.52-.96c.18-.67.28-1.62.28-2.84,0-.9-.1-1.66-.29-2.27-.14-.44-.32-.76-.54-.95-.17-.13-.36-.2-.59-.2-.26,0-.5.12-.71.36-.29.34-.48.84-.58,1.54-.1.7-.14,1.38-.14,2.05Zm-1.15-.14c0-.9.13-1.68.41-2.34.26-.65.64-1.14,1.09-1.46.35-.25.71-.38,1.09-.38.6,0,1.15.31,1.64.94.6.77.9,1.81.9,3.13,0,.92-.13,1.7-.4,2.35-.26.65-.61,1.1-1.02,1.39-.41.29-.8.43-1.19.43-.77,0-1.39-.44-1.9-1.33-.43-.74-.64-1.66-.64-2.72Z"/>
  <g class="cls-22">
    <rect x="105.63" y="318.68" width="6.31" height=".48"/>
  </g>
  <g class="cls-15">
    <line class="cls-5" x1="188.15" y1="307.58" x2="188.15" y2="41.47"/>
  </g>
  <line class="cls-1" x1="188.15" y1="307.58" x2="188.15" y2="311.08"/>
  <path d="m184.27,318.9c-.07.53-.11.96-.11,1.27,0,.38.06.79.2,1.22.13.44.34.79.62,1.04.19.19.43.28.72.28.34,0,.65-.16.91-.48.26-.31.41-.77.41-1.37,0-.66-.14-1.24-.41-1.73-.26-.48-.65-.73-1.13-.73-.14,0-.31.04-.48.1-.17.06-.42.19-.74.4Zm3.64-4.1v.22c-.52.06-.94.17-1.26.31-.34.16-.66.4-.97.71-.31.31-.58.67-.79,1.06-.22.38-.38.85-.52,1.38.55-.38,1.12-.58,1.69-.58.54,0,1.01.23,1.4.66.4.43.6,1,.6,1.68s-.2,1.27-.6,1.82c-.48.66-1.13.98-1.92.98-.55,0-1.01-.17-1.38-.53-.74-.7-1.12-1.61-1.12-2.72,0-.71.13-1.38.42-2.03.29-.64.7-1.2,1.22-1.7.53-.49,1.04-.83,1.52-1,.48-.17.94-.26,1.36-.26h.34Z"/>
  <path d="m190.12,319.13c0,1.1.13,1.99.41,2.68.22.59.54.88,1,.88.2,0,.42-.08.65-.28s.4-.5.52-.96c.18-.67.28-1.62.28-2.84,0-.9-.1-1.66-.29-2.27-.14-.44-.32-.76-.54-.95-.17-.13-.36-.2-.59-.2-.26,0-.5.12-.71.36-.29.34-.48.84-.58,1.54-.1.7-.14,1.38-.14,2.05Zm-1.15-.14c0-.9.13-1.68.41-2.34.26-.65.64-1.14,1.09-1.46.35-.25.71-.38,1.09-.38.6,0,1.15.31,1.64.94.6.77.9,1.81.9,3.13,0,.92-.13,1.7-.4,2.35-.26.65-.61,1.1-1.02,1.39-.41.29-.8.43-1.19.43-.77,0-1.39-.44-1.9-1.33-.43-.74-.64-1.66-.64-2.72Z"/>
  <path d="m196.12,319.13c0,1.1.13,1.99.41,2.68.22.59.54.88,1,.88.2,0,.42-.08.65-.28s.4-.5.52-.96c.18-.67.28-1.62.28-2.84,0-.9-.1-1.66-.29-2.27-.14-.44-.32-.76-.54-.95-.17-.13-.36-.2-.59-.2-.26,0-.5.12-.71.36-.29.34-.48.84-.58,1.54-.1.7-.14,1.38-.14,2.05Zm-1.15-.14c0-.9.13-1.68.41-2.34.26-.65.64-1.14,1.09-1.46.35-.25.71-.38,1.09-.38.6,0,1.15.31,1.64.94.6.77.9,1.81.9,3.13,0,.92-.13,1.7-.4,2.35-.26.65-.61,1.1-1.02,1.39-.41.29-.8.43-1.19.43-.77,0-1.39-.44-1.9-1.33-.43-.74-.64-1.66-.64-2.72Z"/>
  <g class="cls-30">
    <rect x="175.98" y="318.68" width="6.31" height=".48"/>
  </g>
  <g class="cls-23">
    <line class="cls-5" x1="258.5" y1="307.58" x2="258.5" y2="41.47"/>
  </g>
  <line class="cls-1" x1="258.5" y1="307.58" x2="258.5" y2="311.08"/>
  <path d="m256.43,319.98v-3.95l-2.8,3.95h2.8Zm2.03,0v.83h-1.07v2.1h-.96v-2.1h-3.36v-.74l3.68-5.27h.64v5.18h1.07Z"/>
  <path d="m260.46,319.13c0,1.1.13,1.99.41,2.68.22.59.54.88,1,.88.2,0,.42-.08.65-.28.23-.19.4-.5.52-.96.18-.67.28-1.62.28-2.84,0-.9-.1-1.66-.29-2.27-.14-.44-.32-.76-.54-.95-.17-.13-.36-.2-.59-.2-.26,0-.5.12-.71.36-.29.34-.48.84-.58,1.54-.1.7-.14,1.38-.14,2.05Zm-1.15-.14c0-.9.13-1.68.41-2.34.26-.65.64-1.14,1.09-1.46.35-.25.71-.38,1.09-.38.6,0,1.15.31,1.64.94.6.77.9,1.81.9,3.13,0,.92-.13,1.7-.4,2.35-.26.65-.61,1.1-1.02,1.39-.41.29-.8.43-1.19.43-.77,0-1.39-.44-1.9-1.33-.43-.74-.64-1.66-.64-2.72Z"/>
  <path d="m266.46,319.13c0,1.1.13,1.99.41,2.68.22.59.54.88,1,.88.2,0,.42-.08.65-.28.23-.19.4-.5.52-.96.18-.67.28-1.62.28-2.84,0-.9-.1-1.66-.29-2.27-.14-.44-.32-.76-.54-.95-.17-.13-.36-.2-.59-.2-.26,0-.5.12-.71.36-.29.34-.48.84-.58,1.54-.1.7-.14,1.38-.14,2.05Zm-1.15-.14c0-.9.13-1.68.41-2.34.26-.65.64-1.14,1.09-1.46.35-.25.71-.38,1.09-.38.6,0,1.15.31,1.64.94.6.77.9,1.81.9,3.13,0,.92-.13,1.7-.4,2.35-.26.65-.61,1.1-1.02,1.39-.41.29-.8.43-1.19.43-.77,0-1.39-.44-1.9-1.33-.43-.74-.64-1.66-.64-2.72Z"/>
  <g class="cls-34">
    <rect x="246.33" y="318.68" width="6.31" height=".48"/>
  </g>
  <g class="cls-18">
    <line class="cls-5" x1="328.84" y1="307.58" x2="328.84" y2="41.47"/>
  </g>
  <line class="cls-1" x1="328.84" y1="307.58" x2="328.84" y2="311.08"/>
  <path d="m328.72,321.39l-.55,1.52h-4.69v-.22c1.38-1.25,2.35-2.28,2.92-3.08.55-.79.84-1.52.84-2.18,0-.5-.16-.91-.47-1.24-.31-.32-.67-.49-1.09-.49-.4,0-.74.12-1.06.35s-.54.56-.68,1h-.22c.1-.72.34-1.27.74-1.66.41-.38.91-.59,1.51-.59.65,0,1.19.22,1.62.62.43.42.65.91.65,1.46,0,.41-.1.8-.28,1.21-.3.64-.77,1.31-1.42,2-.97,1.07-1.58,1.7-1.82,1.92h2.08c.42,0,.72-.01.89-.05.17-.02.32-.08.47-.18.13-.1.25-.23.35-.41h.22Z"/>
  <path d="m330.81,319.13c0,1.1.13,1.99.41,2.68.22.59.54.88,1,.88.2,0,.42-.08.65-.28.23-.19.4-.5.52-.96.18-.67.28-1.62.28-2.84,0-.9-.1-1.66-.29-2.27-.14-.44-.32-.76-.54-.95-.17-.13-.36-.2-.59-.2-.26,0-.5.12-.71.36-.29.34-.48.84-.58,1.54-.1.7-.14,1.38-.14,2.05Zm-1.15-.14c0-.9.13-1.68.41-2.34.26-.65.64-1.14,1.09-1.46.35-.25.71-.38,1.09-.38.6,0,1.15.31,1.64.94.6.77.9,1.81.9,3.13,0,.92-.13,1.7-.4,2.35-.26.65-.61,1.1-1.02,1.39-.41.29-.8.43-1.19.43-.77,0-1.39-.44-1.9-1.33-.43-.74-.64-1.66-.64-2.72Z"/>
  <path d="m336.81,319.13c0,1.1.13,1.99.41,2.68.22.59.54.88,1,.88.2,0,.42-.08.65-.28.23-.19.4-.5.52-.96.18-.67.28-1.62.28-2.84,0-.9-.1-1.66-.29-2.27-.14-.44-.32-.76-.54-.95-.17-.13-.36-.2-.59-.2-.26,0-.5.12-.71.36-.29.34-.48.84-.58,1.54-.1.7-.14,1.38-.14,2.05Zm-1.15-.14c0-.9.13-1.68.41-2.34.26-.65.64-1.14,1.09-1.46.35-.25.71-.38,1.09-.38.6,0,1.15.31,1.64.94.6.77.9,1.81.9,3.13,0,.92-.13,1.7-.4,2.35-.26.65-.61,1.1-1.02,1.39-.41.29-.8.43-1.19.43-.77,0-1.39-.44-1.9-1.33-.43-.74-.64-1.66-.64-2.72Z"/>
  <g class="cls-21">
    <rect x="316.68" y="318.68" width="6.31" height=".48"/>
  </g>
  <g class="cls-31">
    <line class="cls-5" x1="399.19" y1="307.58" x2="399.19" y2="41.47"/>
  </g>
  <line class="cls-1" x1="399.19" y1="307.58" x2="399.19" y2="311.08"/>
  <path d="m397.77,319.13c0,1.1.13,1.99.41,2.68.22.59.54.88,1,.88.2,0,.42-.08.65-.28.23-.19.4-.5.52-.96.18-.67.28-1.62.28-2.84,0-.9-.1-1.66-.29-2.27-.14-.44-.32-.76-.54-.95-.17-.13-.36-.2-.59-.2-.26,0-.5.12-.71.36-.29.34-.48.84-.58,1.54-.1.7-.14,1.38-.14,2.05Zm-1.15-.14c0-.9.13-1.68.41-2.34.26-.65.64-1.14,1.09-1.46.35-.25.71-.38,1.09-.38.6,0,1.15.31,1.64.94.6.77.9,1.81.9,3.13,0,.92-.13,1.7-.4,2.35-.26.65-.61,1.1-1.02,1.39-.41.29-.8.43-1.19.43-.77,0-1.39-.44-1.9-1.33-.43-.74-.64-1.66-.64-2.72Z"/>
  <g class="cls-28">
    <line class="cls-5" x1="57.6" y1="307.58" x2="414.72" y2="307.58"/>
  </g>
  <line class="cls-1" x1="399.19" y1="307.58" x2="395.69" y2="307.58"/>
  <g class="cls-35">
    <line class="cls-5" x1="57.6" y1="273.97" x2="414.72" y2="273.97"/>
  </g>
  <line class="cls-1" x1="399.19" y1="273.97" x2="395.69" y2="273.97"/>
  <path d="m387.59,270.97l1.93-.95h.19v6.71c0,.46.01.73.06.84.04.11.11.19.23.25.12.06.36.1.72.1v.22h-2.99v-.22c.37,0,.61-.04.72-.1.11-.05.18-.13.23-.23s.07-.38.07-.86v-4.28c0-.58-.02-.95-.06-1.12-.02-.12-.07-.22-.14-.28-.07-.05-.17-.08-.26-.08-.14,0-.35.06-.6.18l-.1-.18Z"/>
  <g class="cls-6">
    <line class="cls-5" x1="57.6" y1="240.35" x2="414.72" y2="240.35"/>
  </g>
  <line class="cls-1" x1="399.19" y1="240.35" x2="395.69" y2="240.35"/>
  <path d="m391.69,242.99l-.55,1.52h-4.69v-.22c1.38-1.25,2.35-2.28,2.92-3.08.55-.79.84-1.52.84-2.18,0-.5-.16-.91-.47-1.24-.31-.32-.67-.49-1.09-.49-.4,0-.74.12-1.06.35-.31.23-.54.56-.68,1h-.22c.1-.72.34-1.27.74-1.66.41-.38.91-.59,1.51-.59.65,0,1.19.22,1.62.62.43.42.65.91.65,1.46,0,.41-.1.8-.28,1.21-.3.64-.77,1.31-1.42,2-.97,1.07-1.58,1.7-1.82,1.92h2.08c.42,0,.72-.01.89-.05.17-.02.32-.08.47-.18.13-.1.25-.23.35-.41h.22Z"/>
  <g class="cls-27">
    <line class="cls-5" x1="57.6" y1="206.73" x2="414.72" y2="206.73"/>
  </g>
  <line class="cls-1" x1="399.19" y1="206.73" x2="395.69" y2="206.73"/>
  <path d="m386.8,204.46c.22-.53.5-.95.85-1.24.35-.29.78-.44,1.3-.44.64,0,1.13.22,1.46.62.25.31.38.65.38.98,0,.59-.37,1.19-1.09,1.8.48.19.85.47,1.1.83.25.36.38.77.38,1.25,0,.7-.23,1.28-.66,1.79-.58.65-1.39.97-2.47.97-.54,0-.9-.07-1.09-.19s-.29-.26-.29-.43c0-.11.04-.2.13-.29.08-.08.19-.13.34-.13.1,0,.19.02.29.05.07.02.22.1.46.22.23.12.4.19.49.22.14.05.29.06.46.06.4,0,.74-.14,1.04-.46.29-.31.44-.67.44-1.1,0-.3-.07-.6-.2-.9-.11-.22-.22-.37-.34-.49-.17-.16-.41-.3-.7-.43-.29-.12-.59-.19-.9-.19h-.18v-.17c.3-.04.61-.14.92-.34.31-.18.53-.4.67-.66.14-.25.22-.54.22-.85,0-.4-.13-.72-.38-.97-.25-.24-.56-.37-.94-.37-.6,0-1.1.32-1.51.97l-.19-.1Z"/>
  <g class="cls-16">
    <line class="cls-5" x1="57.6" y1="173.11" x2="414.72" y2="173.11"/>
  </g>
  <line class="cls-1" x1="399.19" y1="173.11" x2="395.69" y2="173.11"/>
  <path d="m389.74,174.35v-3.95l-2.8,3.95h2.8Zm2.03,0v.83h-1.07v2.1h-.96v-2.1h-3.36v-.74l3.68-5.27h.64v5.18h1.07Z"/>
  <g class="cls-32">
    <line class="cls-5" x1="57.6" y1="139.5" x2="414.72" y2="139.5"/>
  </g>
  <line class="cls-1" x1="399.19" y1="139.5" x2="395.69" y2="139.5"/>
  <path d="m391.4,135.72l-.46,1h-2.39l-.53,1.07c1.03.16,1.86.54,2.46,1.15.52.53.78,1.15.78,1.87,0,.42-.08.8-.25,1.16s-.38.66-.65.91-.54.46-.85.6c-.46.2-.91.31-1.38.31s-.83-.08-1.04-.24-.32-.34-.32-.53c0-.11.04-.2.13-.29.08-.08.19-.13.34-.13.1,0,.19.02.26.05.07.04.2.12.4.24.29.2.59.3.89.3.46,0,.85-.17,1.2-.52.35-.34.53-.76.53-1.26s-.16-.92-.47-1.34c-.31-.41-.73-.73-1.27-.96-.43-.17-1.01-.28-1.74-.31l1.52-3.08h2.84Z"/>
  <g class="cls-17">
    <line class="cls-5" x1="57.6" y1="105.88" x2="414.72" y2="105.88"/>
  </g>
  <line class="cls-1" x1="399.19" y1="105.88" x2="395.69" y2="105.88"/>
  <path d="m387.93,106.04c-.07.53-.11.96-.11,1.27,0,.38.06.79.2,1.22.13.44.34.79.62,1.04.19.19.43.28.72.28.34,0,.65-.16.91-.48.26-.31.41-.77.41-1.37,0-.66-.14-1.24-.41-1.73-.26-.48-.65-.73-1.13-.73-.14,0-.31.04-.48.1-.17.06-.42.19-.74.4Zm3.64-4.1v.22c-.52.06-.94.17-1.26.31-.34.16-.66.4-.97.71-.31.31-.58.67-.79,1.06-.22.38-.38.85-.52,1.38.55-.38,1.12-.58,1.69-.58.54,0,1.01.23,1.4.66.4.43.6,1,.6,1.68s-.2,1.27-.6,1.82c-.48.66-1.13.98-1.92.98-.55,0-1.01-.17-1.38-.53-.74-.7-1.12-1.61-1.12-2.72,0-.71.13-1.38.42-2.03.29-.64.7-1.2,1.22-1.7.53-.49,1.04-.83,1.52-1,.48-.17.94-.26,1.36-.26h.34Z"/>
  <g class="cls-7">
    <line class="cls-5" x1="57.6" y1="72.26" x2="414.72" y2="72.26"/>
  </g>
  <line class="cls-1" x1="399.19" y1="72.26" x2="395.69" y2="72.26"/>
  <path d="m387.4,68.48h4.26v.22l-2.65,7.88h-.66l2.38-7.15h-2.18c-.44,0-.76.06-.95.17-.34.18-.6.46-.79.83l-.17-.06.77-1.88Z"/>
  <g class="cls-33">
    <polyline class="cls-2" points="73.83 284.28 91.42 270.65 109.01 260.98 126.59 253.48 144.18 247.35 161.77 242.17 179.35 237.68 196.94 230.18 214.53 224.05 232.12 210.42 249.7 192.14 267.29 175.41 284.88 159.03 302.46 143.18 320.05 127.04 337.64 110.37 355.22 92.82 372.81 76.15 390.4 60.74 398.49 53.03"/>
  </g>
  <line class="cls-3" x1="399.19" y1="307.58" x2="399.19" y2="33.28"/>
  <line class="cls-3" x1="57.6" y1="307.58" x2="440.36" y2="307.58"/>
  <g>
    <text class="cls-10" transform="translate(377.62 44.37)"><tspan class="cls-26" x="0" y="0">l</tspan><tspan x="3.15" y="0">n</tspan></text>
    <text class="cls-14" transform="translate(389.15 44.37)"><tspan x="0" y="0">I</tspan></text>
  </g>
  <g>
    <text class="cls-9" transform="translate(402.97 44.37)"><tspan class="cls-20" x="0" y="0">l</tspan><tspan x="3.16" y="0">n</tspan></text>
    <text class="cls-12" transform="translate(414.98 44.37)"><tspan class="cls-24" x="0" y="0">м</tspan><tspan class="cls-13" x="7.62" y="0">кА</tspan></text>
  </g>
  <g>
    <text class="cls-11" transform="translate(427.43 323.04)"><tspan x="0" y="0">,</tspan></text>
    <text class="cls-25" transform="translate(417.3 323.04)"><tspan x="0" y="0">U</tspan></text>
    <text class="cls-25" transform="translate(432.68 323.04)"><tspan class="cls-19" x="0" y="0">м</tspan><tspan x="7.65" y="0">В</tspan></text>
  </g>
</svg>